# xmcd
#
# Track frame offsets: 
#        150
#        21083
#        49451
#        70052
#        106063
#        132518
#        157650
#        176715
#        199284
#        231567
#        254661
#        278365
#        310566
#
# Disc length: 4491 seconds
#
# Revision: 0
# Processed by: cddbd v1.5.1PL0 Copyright (c) Steve Scherf et al.
# Submitted via: ExactAudioCopy v0.95a4
#
DISCID=b311890d
DTITLE=Randy Oxford Band - All The Buzz
DYEAR=2003
DGENRE=Blues
TTITLE0=Think
TTITLE1=Texas Hurricane
TTITLE2=Knockin' Myself Out
TTITLE3=Crazy 'bout You
TTITLE4=Bumble Bee
TTITLE5=Why Don't You Do Right
TTITLE6=Peach
TTITLE7=Help Me
TTITLE8=Moscow Blues
TTITLE9=Darkside of the Sun
TTITLE10=Sugar in My Bowl
TTITLE11=Hard Way To Go
TTITLE12=High Flying Bird
EXTD=
EXTT0=
EXTT1=
EXTT2=
EXTT3=
EXTT4=
EXTT5=
EXTT6=
EXTT7=
EXTT8=
EXTT9=
EXTT10=
EXTT11=
EXTT12=
PLAYORDER=
